<svg width="129" height="27" viewBox="0 0 129 27" fill="none" xmlns="http://www.w3.org/2000/svg">
<g clip-path="url(#clip0_73_32)">
<path d="M13.7354 26.32C11.4741 26.32 9.42606 25.8293 7.5914 24.848C5.77806 23.8453 4.34873 22.4693 3.3034 20.72C2.2794 18.9707 1.7674 16.9973 1.7674 14.8C1.7674 12.6027 2.29006 10.6293 3.33539 8.88C4.38073 7.13066 5.81006 5.76533 7.6234 4.784C9.45806 3.78133 11.5061 3.28 13.7674 3.28C15.6021 3.28 17.2767 3.6 18.7914 4.24C20.3061 4.88 21.5861 5.808 22.6314 7.024L19.9434 9.552C18.3221 7.80266 16.3274 6.928 13.9594 6.928C12.4234 6.928 11.0474 7.26933 9.8314 7.952C8.6154 8.61333 7.66606 9.54133 6.9834 10.736C6.30073 11.9307 5.9594 13.2853 5.9594 14.8C5.9594 16.3147 6.30073 17.6693 6.9834 18.864C7.66606 20.0587 8.6154 20.9973 9.8314 21.68C11.0474 22.3413 12.4234 22.672 13.9594 22.672C16.3274 22.672 18.3221 21.7867 19.9434 20.016L22.6314 22.576C21.5861 23.792 20.2954 24.72 18.7594 25.36C17.2447 26 15.5701 26.32 13.7354 26.32Z" fill="white"/>
<path d="M33.2884 26.224C31.5604 26.224 30.0031 25.8507 28.6164 25.104C27.2297 24.3573 26.1417 23.3227 25.3524 22C24.5844 20.656 24.2004 19.1413 24.2004 17.456C24.2004 15.7707 24.5844 14.2667 25.3524 12.944C26.1417 11.6213 27.2297 10.5867 28.6164 9.84C30.0031 9.09333 31.5604 8.72 33.2884 8.72C35.0377 8.72 36.6057 9.09333 37.9924 9.84C39.3791 10.5867 40.4564 11.6213 41.2244 12.944C42.0137 14.2667 42.4084 15.7707 42.4084 17.456C42.4084 19.1413 42.0137 20.656 41.2244 22C40.4564 23.3227 39.3791 24.3573 37.9924 25.104C36.6057 25.8507 35.0377 26.224 33.2884 26.224ZM33.2884 22.8C34.7604 22.8 35.9764 22.3093 36.9364 21.328C37.8964 20.3467 38.3764 19.056 38.3764 17.456C38.3764 15.856 37.8964 14.5653 36.9364 13.584C35.9764 12.6027 34.7604 12.112 33.2884 12.112C31.8164 12.112 30.6004 12.6027 29.6404 13.584C28.7017 14.5653 28.2324 15.856 28.2324 17.456C28.2324 19.056 28.7017 20.3467 29.6404 21.328C30.6004 22.3093 31.8164 22.8 33.2884 22.8Z" fill="white"/>
<path d="M46.2334 2.256H50.2334V26H46.2334V2.256Z" fill="white"/>
<path d="M63.1634 26.224C61.4354 26.224 59.8781 25.8507 58.4914 25.104C57.1047 24.3573 56.0167 23.3227 55.2274 22C54.4594 20.656 54.0754 19.1413 54.0754 17.456C54.0754 15.7707 54.4594 14.2667 55.2274 12.944C56.0167 11.6213 57.1047 10.5867 58.4914 9.84C59.8781 9.09333 61.4354 8.72 63.1634 8.72C64.9127 8.72 66.4807 9.09333 67.8674 9.84C69.2541 10.5867 70.3314 11.6213 71.0994 12.944C71.8887 14.2667 72.2834 15.7707 72.2834 17.456C72.2834 19.1413 71.8887 20.656 71.0994 22C70.3314 23.3227 69.2541 24.3573 67.8674 25.104C66.4807 25.8507 64.9127 26.224 63.1634 26.224ZM63.1634 22.8C64.6354 22.8 65.8514 22.3093 66.8114 21.328C67.7714 20.3467 68.2514 19.056 68.2514 17.456C68.2514 15.856 67.7714 14.5653 66.8114 13.584C65.8514 12.6027 64.6354 12.112 63.1634 12.112C61.6914 12.112 60.4754 12.6027 59.5154 13.584C58.5767 14.5653 58.1074 15.856 58.1074 17.456C58.1074 19.056 58.5767 20.3467 59.5154 21.328C60.4754 22.3093 61.6914 22.8 63.1634 22.8Z" fill="white"/>
<path d="M79.9164 11.408C81.0684 9.616 83.0951 8.72 85.9964 8.72V12.528C85.6551 12.464 85.3457 12.432 85.0684 12.432C83.5111 12.432 82.2951 12.8907 81.4204 13.808C80.5457 14.704 80.1084 16.0053 80.1084 17.712V26H76.1084V8.912H79.9164V11.408Z" fill="white"/>
<path d="M89.3896 8.912H93.3896V26H89.3896V8.912Z" fill="white"/>
<path d="M108.912 25.072C108.442 25.456 107.866 25.744 107.184 25.936C106.522 26.128 105.818 26.224 105.072 26.224C103.194 26.224 101.744 25.7333 100.72 24.752C99.6956 23.7707 99.1836 22.3413 99.1836 20.464V12.24H96.3676V9.04H99.1836V5.136H103.184V9.04H107.76V12.24H103.184V20.368C103.184 21.2 103.386 21.84 103.792 22.288C104.197 22.7147 104.784 22.928 105.552 22.928C106.448 22.928 107.194 22.6933 107.792 22.224L108.912 25.072Z" fill="white"/>
<path d="M119.32 26.224C117.592 26.224 116.034 25.8507 114.648 25.104C113.261 24.3573 112.173 23.3227 111.384 22C110.616 20.656 110.232 19.1413 110.232 17.456C110.232 15.7707 110.616 14.2667 111.384 12.944C112.173 11.6213 113.261 10.5867 114.648 9.84C116.034 9.09333 117.592 8.72 119.32 8.72C121.069 8.72 122.637 9.09333 124.024 9.84C125.41 10.5867 126.488 11.6213 127.256 12.944C128.045 14.2667 128.44 15.7707 128.44 17.456C128.44 19.1413 128.045 20.656 127.256 22C126.488 23.3227 125.41 24.3573 124.024 25.104C122.637 25.8507 121.069 26.224 119.32 26.224ZM119.32 22.8C120.792 22.8 122.008 22.3093 122.968 21.328C123.928 20.3467 124.408 19.056 124.408 17.456C124.408 15.856 123.928 14.5653 122.968 13.584C122.008 12.6027 120.792 12.112 119.32 12.112C117.848 12.112 116.632 12.6027 115.672 13.584C114.733 14.5653 114.264 15.856 114.264 17.456C114.264 19.056 114.733 20.3467 115.672 21.328C116.632 22.3093 117.848 22.8 119.32 22.8Z" fill="white"/>
<circle cx="91.4706" cy="4.04331" r="2.68525" fill="#6CFF98"/>
</g>
<defs>
<clipPath id="clip0_73_32">
<rect width="128" height="26" fill="white" transform="translate(0.767395 0.358063)"/>
</clipPath>
</defs>
</svg>
